G04 PROTEUS GERBER X2 FILE*
%TF.GenerationSoftware,Labcenter,Proteus,8.6-SP2-Build23525*%
%TF.CreationDate,2025-01-29T09:47:47+00:00*%
%TF.FileFunction,Plated,1,2,PTH*%
%TF.FilePolarity,Positive*%
%TF.Part,Single*%
%FSLAX45Y45*%
%MOMM*%
G01*
%TA.AperFunction,ViaDrill*%
%ADD28C,0.762000*%
%TA.AperFunction,ComponentDrill*%
%ADD29C,0.762000*%
%TA.AperFunction,ComponentDrill*%
%ADD72C,1.016000*%
%ADD73C,0.812800*%
%TA.AperFunction,ComponentDrill*%
%ADD30C,1.524000*%
%TA.AperFunction,OtherDrill,Unknown*%
%ADD31C,3.200000*%
%TD.AperFunction*%
D28*
X-1250000Y+3100000D03*
X-2300000Y+3250000D03*
X+3750000Y+2100000D03*
X-2192020Y+2934696D03*
X-750000Y+2950000D03*
X+999857Y+2950000D03*
X+4150000Y+2600000D03*
X-550000Y+2100000D03*
X-2644455Y+2921954D03*
X-2643841Y+2396742D03*
X+500000Y+2104957D03*
X+1700000Y+2750000D03*
X+1190000Y+2750000D03*
X-350000Y+2750000D03*
X+1900000Y+2600000D03*
X+1310000Y+2500000D03*
X+250000Y+2500000D03*
D29*
X-2000000Y-1450000D03*
X+2500000Y-1450000D03*
X+2500000Y+1200000D03*
X+2250000Y-1450000D03*
X-1750000Y-1450000D03*
X+1250000Y+1200000D03*
X+1500000Y+1200000D03*
X+1000000Y+1200000D03*
X+250000Y+1200000D03*
X+1000000Y-1450000D03*
X+1500000Y-1450000D03*
X+750000Y-1450000D03*
X+1750000Y+1200000D03*
X+750000Y+1200000D03*
X+500000Y+1200000D03*
X+0Y+1200000D03*
X-250000Y+1200000D03*
X-750000Y+1200000D03*
X-1500000Y+1200000D03*
X-1750000Y+1200000D03*
X+0Y-1450000D03*
X+250000Y-1450000D03*
X+500000Y-1450000D03*
X-500000Y-1450000D03*
X-250000Y-1450000D03*
X-1000000Y-1450000D03*
X-750000Y-1450000D03*
X+1250000Y-1450000D03*
X-500000Y+1200000D03*
X-2000000Y+1200000D03*
X-1000000Y+1200000D03*
X+2250000Y+1200000D03*
X+2000000Y+1200000D03*
X+1750000Y-1450000D03*
X+2000000Y-1450000D03*
X-1250000Y-1450000D03*
X-1500000Y-1450000D03*
X-1250000Y+1200000D03*
D72*
X-5504000Y+4296000D03*
X-5504000Y+4550000D03*
X-5250000Y+4296000D03*
X-5250000Y+4550000D03*
X-4996000Y+4296000D03*
X-4996000Y+4550000D03*
X-4742000Y+4296000D03*
X-4742000Y+4550000D03*
X-3254000Y+4296000D03*
X-3254000Y+4550000D03*
X-3000000Y+4296000D03*
X-3000000Y+4550000D03*
X-2746000Y+4296000D03*
X-2746000Y+4550000D03*
X-2492000Y+4296000D03*
X-2492000Y+4550000D03*
X+1246000Y+4296000D03*
X+1246000Y+4550000D03*
X+1500000Y+4296000D03*
X+1500000Y+4550000D03*
X+1754000Y+4296000D03*
X+1754000Y+4550000D03*
X+2008000Y+4296000D03*
X+2008000Y+4550000D03*
X+3496000Y+4296000D03*
X+3496000Y+4550000D03*
X+3750000Y+4296000D03*
X+3750000Y+4550000D03*
X+4004000Y+4296000D03*
X+4004000Y+4550000D03*
X+4258000Y+4296000D03*
X+4258000Y+4550000D03*
X-1004000Y+4296000D03*
X-1004000Y+4550000D03*
X-750000Y+4296000D03*
X-750000Y+4550000D03*
X-496000Y+4296000D03*
X-496000Y+4550000D03*
X-242000Y+4296000D03*
X-242000Y+4550000D03*
D73*
X-5850000Y+3550000D03*
X-5650000Y+3550000D03*
X-5450000Y+3550000D03*
X-5250000Y+3550000D03*
X-5050000Y+3550000D03*
X-4850000Y+3550000D03*
X-4650000Y+3550000D03*
X-4450000Y+3550000D03*
X-3600000Y+3550000D03*
X-3400000Y+3550000D03*
X-3200000Y+3550000D03*
X-3000000Y+3550000D03*
X-2800000Y+3550000D03*
X-2600000Y+3550000D03*
X-2400000Y+3550000D03*
X-2200000Y+3550000D03*
X-1350000Y+3550000D03*
X-1150000Y+3550000D03*
X-950000Y+3550000D03*
X-750000Y+3550000D03*
X-550000Y+3550000D03*
X-350000Y+3550000D03*
X-150000Y+3550000D03*
X+50000Y+3550000D03*
X+900000Y+3550000D03*
X+1100000Y+3550000D03*
X+1300000Y+3550000D03*
X+1500000Y+3550000D03*
X+1700000Y+3550000D03*
X+1900000Y+3550000D03*
X+2100000Y+3550000D03*
X+2300000Y+3550000D03*
X+3150000Y+3550000D03*
X+3350000Y+3550000D03*
X+3550000Y+3550000D03*
X+3750000Y+3550000D03*
X+3950000Y+3550000D03*
X+4150000Y+3550000D03*
X+4350000Y+3550000D03*
X+4550000Y+3550000D03*
D30*
X+0Y+2100000D03*
X-1750000Y+2100000D03*
X+1000000Y+2100000D03*
X+1490000Y+1790000D03*
D31*
X-5890000Y-1670000D03*
X+4710000Y-1660000D03*
X-5850000Y+6300000D03*
X+4800000Y+6300000D03*
M02*
