G04 PROTEUS GERBER X2 FILE*
%TF.GenerationSoftware,Labcenter,Proteus,8.6-SP2-Build23525*%
%TF.CreationDate,2025-01-29T09:47:47+00:00*%
%TF.FileFunction,Soldermask,Top*%
%TF.FilePolarity,Negative*%
%TF.Part,Single*%
%FSLAX45Y45*%
%MOMM*%
G01*
%TA.AperFunction,Material*%
%ADD71C,2.286000*%
%TA.AperFunction,Material*%
%ADD20C,1.778000*%
%ADD21C,1.651000*%
%TA.AperFunction,Material*%
%ADD22C,2.794000*%
%TA.AperFunction,Profile*%
%ADD17C,0.203200*%
%TD.AperFunction*%
D71*
X-1250000Y+3100000D03*
X-2300000Y+3250000D03*
X+3750000Y+2100000D03*
X-2192020Y+2934696D03*
X-750000Y+2950000D03*
X+999857Y+2950000D03*
X+4150000Y+2600000D03*
X-550000Y+2100000D03*
X-2644455Y+2921954D03*
X-2643841Y+2396742D03*
X+500000Y+2104957D03*
X+1700000Y+2750000D03*
X+1190000Y+2750000D03*
X-350000Y+2750000D03*
X+1900000Y+2600000D03*
X+1310000Y+2500000D03*
X+250000Y+2500000D03*
X-2000000Y-1450000D03*
X+2500000Y-1450000D03*
X+2500000Y+1200000D03*
X+2250000Y-1450000D03*
X-1750000Y-1450000D03*
X+1250000Y+1200000D03*
X+1500000Y+1200000D03*
X+1000000Y+1200000D03*
X+250000Y+1200000D03*
X+1000000Y-1450000D03*
X+1500000Y-1450000D03*
X+750000Y-1450000D03*
X+1750000Y+1200000D03*
X+750000Y+1200000D03*
X+500000Y+1200000D03*
X+0Y+1200000D03*
X-250000Y+1200000D03*
X-750000Y+1200000D03*
X-1500000Y+1200000D03*
X-1750000Y+1200000D03*
X+0Y-1450000D03*
X+250000Y-1450000D03*
X+500000Y-1450000D03*
X-500000Y-1450000D03*
X-250000Y-1450000D03*
X-1000000Y-1450000D03*
X-750000Y-1450000D03*
X+1250000Y-1450000D03*
X-500000Y+1200000D03*
X-2000000Y+1200000D03*
X-1000000Y+1200000D03*
X+2250000Y+1200000D03*
X+2000000Y+1200000D03*
X+1750000Y-1450000D03*
X+2000000Y-1450000D03*
X-1250000Y-1450000D03*
X-1500000Y-1450000D03*
X-1250000Y+1200000D03*
D20*
X-5504000Y+4296000D03*
X-5504000Y+4550000D03*
X-5250000Y+4296000D03*
X-5250000Y+4550000D03*
X-4996000Y+4296000D03*
X-4996000Y+4550000D03*
X-4742000Y+4296000D03*
X-4742000Y+4550000D03*
X-3254000Y+4296000D03*
X-3254000Y+4550000D03*
X-3000000Y+4296000D03*
X-3000000Y+4550000D03*
X-2746000Y+4296000D03*
X-2746000Y+4550000D03*
X-2492000Y+4296000D03*
X-2492000Y+4550000D03*
X+1246000Y+4296000D03*
X+1246000Y+4550000D03*
X+1500000Y+4296000D03*
X+1500000Y+4550000D03*
X+1754000Y+4296000D03*
X+1754000Y+4550000D03*
X+2008000Y+4296000D03*
X+2008000Y+4550000D03*
X+3496000Y+4296000D03*
X+3496000Y+4550000D03*
X+3750000Y+4296000D03*
X+3750000Y+4550000D03*
X+4004000Y+4296000D03*
X+4004000Y+4550000D03*
X+4258000Y+4296000D03*
X+4258000Y+4550000D03*
X-1004000Y+4296000D03*
X-1004000Y+4550000D03*
X-750000Y+4296000D03*
X-750000Y+4550000D03*
X-496000Y+4296000D03*
X-496000Y+4550000D03*
X-242000Y+4296000D03*
X-242000Y+4550000D03*
D21*
X-5850000Y+3550000D03*
X-5650000Y+3550000D03*
X-5450000Y+3550000D03*
X-5250000Y+3550000D03*
X-5050000Y+3550000D03*
X-4850000Y+3550000D03*
X-4650000Y+3550000D03*
X-4450000Y+3550000D03*
X-3600000Y+3550000D03*
X-3400000Y+3550000D03*
X-3200000Y+3550000D03*
X-3000000Y+3550000D03*
X-2800000Y+3550000D03*
X-2600000Y+3550000D03*
X-2400000Y+3550000D03*
X-2200000Y+3550000D03*
X-1350000Y+3550000D03*
X-1150000Y+3550000D03*
X-950000Y+3550000D03*
X-750000Y+3550000D03*
X-550000Y+3550000D03*
X-350000Y+3550000D03*
X-150000Y+3550000D03*
X+50000Y+3550000D03*
X+900000Y+3550000D03*
X+1100000Y+3550000D03*
X+1300000Y+3550000D03*
X+1500000Y+3550000D03*
X+1700000Y+3550000D03*
X+1900000Y+3550000D03*
X+2100000Y+3550000D03*
X+2300000Y+3550000D03*
X+3150000Y+3550000D03*
X+3350000Y+3550000D03*
X+3550000Y+3550000D03*
X+3750000Y+3550000D03*
X+3950000Y+3550000D03*
X+4150000Y+3550000D03*
X+4350000Y+3550000D03*
X+4550000Y+3550000D03*
D22*
X+0Y+2100000D03*
X-1750000Y+2100000D03*
X+1000000Y+2100000D03*
X+1490000Y+1790000D03*
D17*
X-6250000Y-2000000D02*
X-6250000Y+6650000D01*
X+5150000Y+6650000D01*
X+5150000Y-2000000D01*
X-6250000Y-2000000D01*
M02*
