G04 PROTEUS GERBER X2 FILE*
%TF.GenerationSoftware,Labcenter,Proteus,8.6-SP2-Build23525*%
%TF.CreationDate,2025-01-29T09:47:47+00:00*%
%TF.FileFunction,Legend,Top*%
%TF.FilePolarity,Positive*%
%TF.Part,Single*%
%FSLAX45Y45*%
%MOMM*%
G01*
%TA.AperFunction,Material*%
%ADD19C,0.203200*%
%ADD70C,0.152400*%
%TA.AperFunction,Profile*%
%ADD17C,0.203200*%
%TD.AperFunction*%
D19*
X+2910000Y+1300000D02*
X-2590000Y+1300000D01*
X+3000000Y+1300000D02*
X+3000000Y-1500000D01*
X-2500000Y-1500000D01*
X-2590000Y+1300000D02*
X-2590000Y-1500000D01*
X-2500000Y-1500000D02*
X-2550000Y-1500000D01*
X+3000000Y+1300000D02*
X+2920000Y+1300000D01*
X-2560000Y-1500000D02*
X-2590000Y-1500000D01*
X-17250Y-1632080D02*
X-112500Y-1632080D01*
X-112500Y-1540640D01*
X-17250Y-1540640D01*
X-112500Y-1586360D02*
X-49000Y-1586360D01*
X+14500Y-1616840D02*
X+30375Y-1632080D01*
X+93875Y-1632080D01*
X+109750Y-1616840D01*
X+109750Y-1601600D01*
X+93875Y-1586360D01*
X+30375Y-1586360D01*
X+14500Y-1571120D01*
X+14500Y-1555880D01*
X+30375Y-1540640D01*
X+93875Y-1540640D01*
X+109750Y-1555880D01*
X+141500Y-1632080D02*
X+141500Y-1540640D01*
X+220875Y-1540640D01*
X+236750Y-1555880D01*
X+236750Y-1571120D01*
X+220875Y-1586360D01*
X+141500Y-1586360D01*
X+284375Y-1555880D02*
X+300250Y-1540640D01*
X+347875Y-1540640D01*
X+363750Y-1555880D01*
X+363750Y-1571120D01*
X+347875Y-1586360D01*
X+363750Y-1601600D01*
X+363750Y-1616840D01*
X+347875Y-1632080D01*
X+300250Y-1632080D01*
X+284375Y-1616840D01*
X+316125Y-1586360D02*
X+347875Y-1586360D01*
X+411375Y-1555880D02*
X+427250Y-1540640D01*
X+474875Y-1540640D01*
X+490750Y-1555880D01*
X+490750Y-1571120D01*
X+474875Y-1586360D01*
X+427250Y-1586360D01*
X+411375Y-1601600D01*
X+411375Y-1632080D01*
X+490750Y-1632080D01*
D70*
X-6104680Y+4698740D02*
X-4151320Y+4698740D01*
X-4151320Y+5900920D01*
X-4161320Y+5900920D02*
X-6114680Y+5900920D01*
X-6104680Y+4698740D01*
D19*
X-5758000Y+5599020D02*
X-5758000Y+5690460D01*
X-5678625Y+5690460D01*
X-5662750Y+5675220D01*
X-5662750Y+5659980D01*
X-5678625Y+5644740D01*
X-5758000Y+5644740D01*
X-5631000Y+5599020D02*
X-5631000Y+5659980D01*
X-5599250Y+5690460D01*
X-5567500Y+5690460D01*
X-5535750Y+5659980D01*
X-5535750Y+5599020D01*
X-5631000Y+5629500D02*
X-5535750Y+5629500D01*
X-5504000Y+5599020D02*
X-5504000Y+5690460D01*
X-5408750Y+5599020D01*
X-5408750Y+5690460D01*
X-5377000Y+5690460D02*
X-5281750Y+5690460D01*
X-5329375Y+5690460D02*
X-5329375Y+5599020D01*
X-5250000Y+5599020D02*
X-5250000Y+5659980D01*
X-5218250Y+5690460D01*
X-5186500Y+5690460D01*
X-5154750Y+5659980D01*
X-5154750Y+5599020D01*
X-5250000Y+5629500D02*
X-5154750Y+5629500D01*
X-5107125Y+5690460D02*
X-5043625Y+5690460D01*
X-5075375Y+5690460D02*
X-5075375Y+5599020D01*
X-5107125Y+5599020D02*
X-5043625Y+5599020D01*
X-4996000Y+5690460D02*
X-4996000Y+5599020D01*
X-4900750Y+5599020D01*
X-4869000Y+5599020D02*
X-4869000Y+5659980D01*
X-4837250Y+5690460D01*
X-4805500Y+5690460D01*
X-4773750Y+5659980D01*
X-4773750Y+5599020D01*
X-4869000Y+5629500D02*
X-4773750Y+5629500D01*
X-4583250Y+5659980D02*
X-4551500Y+5690460D01*
X-4551500Y+5599020D01*
D70*
X-3854680Y+4698740D02*
X-1901320Y+4698740D01*
X-1901320Y+5900920D01*
X-1911320Y+5900920D02*
X-3864680Y+5900920D01*
X-3854680Y+4698740D01*
D19*
X-3508000Y+5599020D02*
X-3508000Y+5690460D01*
X-3428625Y+5690460D01*
X-3412750Y+5675220D01*
X-3412750Y+5659980D01*
X-3428625Y+5644740D01*
X-3508000Y+5644740D01*
X-3381000Y+5599020D02*
X-3381000Y+5659980D01*
X-3349250Y+5690460D01*
X-3317500Y+5690460D01*
X-3285750Y+5659980D01*
X-3285750Y+5599020D01*
X-3381000Y+5629500D02*
X-3285750Y+5629500D01*
X-3254000Y+5599020D02*
X-3254000Y+5690460D01*
X-3158750Y+5599020D01*
X-3158750Y+5690460D01*
X-3127000Y+5690460D02*
X-3031750Y+5690460D01*
X-3079375Y+5690460D02*
X-3079375Y+5599020D01*
X-3000000Y+5599020D02*
X-3000000Y+5659980D01*
X-2968250Y+5690460D01*
X-2936500Y+5690460D01*
X-2904750Y+5659980D01*
X-2904750Y+5599020D01*
X-3000000Y+5629500D02*
X-2904750Y+5629500D01*
X-2857125Y+5690460D02*
X-2793625Y+5690460D01*
X-2825375Y+5690460D02*
X-2825375Y+5599020D01*
X-2857125Y+5599020D02*
X-2793625Y+5599020D01*
X-2746000Y+5690460D02*
X-2746000Y+5599020D01*
X-2650750Y+5599020D01*
X-2619000Y+5599020D02*
X-2619000Y+5659980D01*
X-2587250Y+5690460D01*
X-2555500Y+5690460D01*
X-2523750Y+5659980D01*
X-2523750Y+5599020D01*
X-2619000Y+5629500D02*
X-2523750Y+5629500D01*
X-2349125Y+5675220D02*
X-2333250Y+5690460D01*
X-2285625Y+5690460D01*
X-2269750Y+5675220D01*
X-2269750Y+5659980D01*
X-2285625Y+5644740D01*
X-2333250Y+5644740D01*
X-2349125Y+5629500D01*
X-2349125Y+5599020D01*
X-2269750Y+5599020D01*
D70*
X+645320Y+4698740D02*
X+2598680Y+4698740D01*
X+2598680Y+5900920D01*
X+2588680Y+5900920D02*
X+635320Y+5900920D01*
X+645320Y+4698740D01*
D19*
X+992000Y+5599020D02*
X+992000Y+5690460D01*
X+1071375Y+5690460D01*
X+1087250Y+5675220D01*
X+1087250Y+5659980D01*
X+1071375Y+5644740D01*
X+992000Y+5644740D01*
X+1119000Y+5599020D02*
X+1119000Y+5659980D01*
X+1150750Y+5690460D01*
X+1182500Y+5690460D01*
X+1214250Y+5659980D01*
X+1214250Y+5599020D01*
X+1119000Y+5629500D02*
X+1214250Y+5629500D01*
X+1246000Y+5599020D02*
X+1246000Y+5690460D01*
X+1341250Y+5599020D01*
X+1341250Y+5690460D01*
X+1373000Y+5690460D02*
X+1468250Y+5690460D01*
X+1420625Y+5690460D02*
X+1420625Y+5599020D01*
X+1500000Y+5599020D02*
X+1500000Y+5659980D01*
X+1531750Y+5690460D01*
X+1563500Y+5690460D01*
X+1595250Y+5659980D01*
X+1595250Y+5599020D01*
X+1500000Y+5629500D02*
X+1595250Y+5629500D01*
X+1642875Y+5690460D02*
X+1706375Y+5690460D01*
X+1674625Y+5690460D02*
X+1674625Y+5599020D01*
X+1642875Y+5599020D02*
X+1706375Y+5599020D01*
X+1754000Y+5690460D02*
X+1754000Y+5599020D01*
X+1849250Y+5599020D01*
X+1881000Y+5599020D02*
X+1881000Y+5659980D01*
X+1912750Y+5690460D01*
X+1944500Y+5690460D01*
X+1976250Y+5659980D01*
X+1976250Y+5599020D01*
X+1881000Y+5629500D02*
X+1976250Y+5629500D01*
X+2150875Y+5675220D02*
X+2166750Y+5690460D01*
X+2214375Y+5690460D01*
X+2230250Y+5675220D01*
X+2230250Y+5659980D01*
X+2214375Y+5644740D01*
X+2230250Y+5629500D01*
X+2230250Y+5614260D01*
X+2214375Y+5599020D01*
X+2166750Y+5599020D01*
X+2150875Y+5614260D01*
X+2182625Y+5644740D02*
X+2214375Y+5644740D01*
D70*
X+2895320Y+4698740D02*
X+4848680Y+4698740D01*
X+4848680Y+5900920D01*
X+4838680Y+5900920D02*
X+2885320Y+5900920D01*
X+2895320Y+4698740D01*
D19*
X+3242000Y+5599020D02*
X+3242000Y+5690460D01*
X+3321375Y+5690460D01*
X+3337250Y+5675220D01*
X+3337250Y+5659980D01*
X+3321375Y+5644740D01*
X+3242000Y+5644740D01*
X+3369000Y+5599020D02*
X+3369000Y+5659980D01*
X+3400750Y+5690460D01*
X+3432500Y+5690460D01*
X+3464250Y+5659980D01*
X+3464250Y+5599020D01*
X+3369000Y+5629500D02*
X+3464250Y+5629500D01*
X+3496000Y+5599020D02*
X+3496000Y+5690460D01*
X+3591250Y+5599020D01*
X+3591250Y+5690460D01*
X+3623000Y+5690460D02*
X+3718250Y+5690460D01*
X+3670625Y+5690460D02*
X+3670625Y+5599020D01*
X+3750000Y+5599020D02*
X+3750000Y+5659980D01*
X+3781750Y+5690460D01*
X+3813500Y+5690460D01*
X+3845250Y+5659980D01*
X+3845250Y+5599020D01*
X+3750000Y+5629500D02*
X+3845250Y+5629500D01*
X+3892875Y+5690460D02*
X+3956375Y+5690460D01*
X+3924625Y+5690460D02*
X+3924625Y+5599020D01*
X+3892875Y+5599020D02*
X+3956375Y+5599020D01*
X+4004000Y+5690460D02*
X+4004000Y+5599020D01*
X+4099250Y+5599020D01*
X+4131000Y+5599020D02*
X+4131000Y+5659980D01*
X+4162750Y+5690460D01*
X+4194500Y+5690460D01*
X+4226250Y+5659980D01*
X+4226250Y+5599020D01*
X+4131000Y+5629500D02*
X+4226250Y+5629500D01*
X+4480250Y+5629500D02*
X+4385000Y+5629500D01*
X+4448500Y+5690460D01*
X+4448500Y+5599020D01*
D70*
X-1604680Y+4698740D02*
X+348680Y+4698740D01*
X+348680Y+5900920D01*
X+338680Y+5900920D02*
X-1614680Y+5900920D01*
X-1604680Y+4698740D01*
D19*
X-1178625Y+5675220D02*
X-1162750Y+5690460D01*
X-1115125Y+5690460D01*
X-1099250Y+5675220D01*
X-1099250Y+5659980D01*
X-1115125Y+5644740D01*
X-1162750Y+5644740D01*
X-1178625Y+5629500D01*
X-1178625Y+5599020D01*
X-1099250Y+5599020D01*
X-940500Y+5599020D02*
X-940500Y+5690460D01*
X-861125Y+5690460D01*
X-845250Y+5675220D01*
X-845250Y+5659980D01*
X-861125Y+5644740D01*
X-940500Y+5644740D01*
X-813500Y+5690460D02*
X-813500Y+5614260D01*
X-797625Y+5599020D01*
X-734125Y+5599020D01*
X-718250Y+5614260D01*
X-718250Y+5690460D01*
X-686500Y+5599020D02*
X-686500Y+5690460D01*
X-591250Y+5599020D01*
X-591250Y+5690460D01*
X-559500Y+5690460D02*
X-464250Y+5690460D01*
X-511875Y+5690460D02*
X-511875Y+5599020D01*
X-432500Y+5690460D02*
X-432500Y+5614260D01*
X-416625Y+5599020D01*
X-353125Y+5599020D01*
X-337250Y+5614260D01*
X-337250Y+5690460D01*
X-305500Y+5599020D02*
X-305500Y+5659980D01*
X-273750Y+5690460D01*
X-242000Y+5690460D01*
X-210250Y+5659980D01*
X-210250Y+5599020D01*
X-305500Y+5629500D02*
X-210250Y+5629500D01*
X-178500Y+5690460D02*
X-178500Y+5599020D01*
X-83250Y+5690460D02*
X-130875Y+5644740D01*
X-83250Y+5599020D01*
X-178500Y+5644740D02*
X-130875Y+5644740D01*
D70*
X-4330150Y+3669380D02*
X-5969850Y+3669380D01*
X-5969850Y+3425865D01*
X-5969850Y+3420620D02*
X-4330150Y+3420620D01*
X-4330150Y+3425865D02*
X-4330150Y+3669380D01*
D19*
X-5277000Y+3331560D02*
X-5277000Y+3316320D01*
X-5261125Y+3301080D01*
X-5197625Y+3301080D01*
X-5181750Y+3316320D01*
X-5181750Y+3392520D01*
X-5118250Y+3362040D02*
X-5086500Y+3392520D01*
X-5086500Y+3301080D01*
D70*
X-2080150Y+3669380D02*
X-3719850Y+3669380D01*
X-3719850Y+3425865D01*
X-3719850Y+3420620D02*
X-2080150Y+3420620D01*
X-2080150Y+3425865D02*
X-2080150Y+3669380D01*
D19*
X-3027000Y+3331560D02*
X-3027000Y+3316320D01*
X-3011125Y+3301080D01*
X-2947625Y+3301080D01*
X-2931750Y+3316320D01*
X-2931750Y+3392520D01*
X-2884125Y+3377280D02*
X-2868250Y+3392520D01*
X-2820625Y+3392520D01*
X-2804750Y+3377280D01*
X-2804750Y+3362040D01*
X-2820625Y+3346800D01*
X-2868250Y+3346800D01*
X-2884125Y+3331560D01*
X-2884125Y+3301080D01*
X-2804750Y+3301080D01*
D70*
X+169850Y+3669380D02*
X-1469850Y+3669380D01*
X-1469850Y+3425865D01*
X-1469850Y+3420620D02*
X+169850Y+3420620D01*
X+169850Y+3425865D02*
X+169850Y+3669380D01*
D19*
X-777000Y+3331560D02*
X-777000Y+3316320D01*
X-761125Y+3301080D01*
X-697625Y+3301080D01*
X-681750Y+3316320D01*
X-681750Y+3392520D01*
X-634125Y+3377280D02*
X-618250Y+3392520D01*
X-570625Y+3392520D01*
X-554750Y+3377280D01*
X-554750Y+3362040D01*
X-570625Y+3346800D01*
X-554750Y+3331560D01*
X-554750Y+3316320D01*
X-570625Y+3301080D01*
X-618250Y+3301080D01*
X-634125Y+3316320D01*
X-602375Y+3346800D02*
X-570625Y+3346800D01*
D70*
X+2419850Y+3669380D02*
X+780150Y+3669380D01*
X+780150Y+3425865D01*
X+780150Y+3420620D02*
X+2419850Y+3420620D01*
X+2419850Y+3425865D02*
X+2419850Y+3669380D01*
D19*
X+1473000Y+3331560D02*
X+1473000Y+3316320D01*
X+1488875Y+3301080D01*
X+1552375Y+3301080D01*
X+1568250Y+3316320D01*
X+1568250Y+3392520D01*
X+1695250Y+3331560D02*
X+1600000Y+3331560D01*
X+1663500Y+3392520D01*
X+1663500Y+3301080D01*
D70*
X+4669850Y+3669380D02*
X+3030150Y+3669380D01*
X+3030150Y+3425865D01*
X+3030150Y+3420620D02*
X+4669850Y+3420620D01*
X+4669850Y+3425865D02*
X+4669850Y+3669380D01*
D19*
X+3723000Y+3331560D02*
X+3723000Y+3316320D01*
X+3738875Y+3301080D01*
X+3802375Y+3301080D01*
X+3818250Y+3316320D01*
X+3818250Y+3392520D01*
X+3945250Y+3392520D02*
X+3865875Y+3392520D01*
X+3865875Y+3362040D01*
X+3929375Y+3362040D01*
X+3945250Y+3346800D01*
X+3945250Y+3316320D01*
X+3929375Y+3301080D01*
X+3881750Y+3301080D01*
X+3865875Y+3316320D01*
X-200000Y+1900000D02*
X+200000Y+1900000D01*
X+200000Y+2300000D01*
X-200000Y+2300000D01*
X-200000Y+1900000D01*
X-127000Y+2298120D02*
X-127000Y+2282880D01*
X-111125Y+2267640D01*
X-47625Y+2267640D01*
X-31750Y+2282880D01*
X-31750Y+2359080D01*
X+95250Y+2343840D02*
X+79375Y+2359080D01*
X+31750Y+2359080D01*
X+15875Y+2343840D01*
X+15875Y+2282880D01*
X+31750Y+2267640D01*
X+79375Y+2267640D01*
X+95250Y+2282880D01*
X+95250Y+2298120D01*
X+79375Y+2313360D01*
X+15875Y+2313360D01*
X-1950000Y+1900000D02*
X-1550000Y+1900000D01*
X-1550000Y+2300000D01*
X-1950000Y+2300000D01*
X-1950000Y+1900000D01*
X-1877000Y+2298120D02*
X-1877000Y+2282880D01*
X-1861125Y+2267640D01*
X-1797625Y+2267640D01*
X-1781750Y+2282880D01*
X-1781750Y+2359080D01*
X-1734125Y+2359080D02*
X-1654750Y+2359080D01*
X-1654750Y+2343840D01*
X-1734125Y+2267640D01*
X+800000Y+1900000D02*
X+1200000Y+1900000D01*
X+1200000Y+2300000D01*
X+800000Y+2300000D01*
X+800000Y+1900000D01*
X+873000Y+2298120D02*
X+873000Y+2282880D01*
X+888875Y+2267640D01*
X+952375Y+2267640D01*
X+968250Y+2282880D01*
X+968250Y+2359080D01*
X+1031750Y+2313360D02*
X+1015875Y+2328600D01*
X+1015875Y+2343840D01*
X+1031750Y+2359080D01*
X+1079375Y+2359080D01*
X+1095250Y+2343840D01*
X+1095250Y+2328600D01*
X+1079375Y+2313360D01*
X+1031750Y+2313360D01*
X+1015875Y+2298120D01*
X+1015875Y+2282880D01*
X+1031750Y+2267640D01*
X+1079375Y+2267640D01*
X+1095250Y+2282880D01*
X+1095250Y+2298120D01*
X+1079375Y+2313360D01*
X+1290000Y+1590000D02*
X+1690000Y+1590000D01*
X+1690000Y+1990000D01*
X+1290000Y+1990000D01*
X+1290000Y+1590000D01*
X+1363000Y+1988120D02*
X+1363000Y+1972880D01*
X+1378875Y+1957640D01*
X+1442375Y+1957640D01*
X+1458250Y+1972880D01*
X+1458250Y+2049080D01*
X+1585250Y+2018600D02*
X+1569375Y+2003360D01*
X+1521750Y+2003360D01*
X+1505875Y+2018600D01*
X+1505875Y+2033840D01*
X+1521750Y+2049080D01*
X+1569375Y+2049080D01*
X+1585250Y+2033840D01*
X+1585250Y+1972880D01*
X+1569375Y+1957640D01*
X+1521750Y+1957640D01*
D17*
X-6250000Y-2000000D02*
X-6250000Y+6650000D01*
X+5150000Y+6650000D01*
X+5150000Y-2000000D01*
X-6250000Y-2000000D01*
M02*
