G04 PROTEUS GERBER X2 FILE*
%TF.GenerationSoftware,Labcenter,Proteus,8.6-SP2-Build23525*%
%TF.CreationDate,2025-01-29T09:47:47+00:00*%
%TF.FileFunction,Copper,L2,Bot*%
%TF.FilePolarity,Positive*%
%TF.Part,Single*%
%FSLAX45Y45*%
%MOMM*%
G01*
%TA.AperFunction,Conductor*%
%ADD10C,0.508000*%
%TA.AperFunction,ViaPad*%
%ADD11C,1.778000*%
%TA.AperFunction,ComponentPad*%
%ADD12C,2.032000*%
%TA.AperFunction,WasherPad*%
%ADD13C,1.524000*%
%ADD14C,1.397000*%
%TA.AperFunction,ComponentPad*%
%ADD15C,2.540000*%
%TA.AperFunction,OtherPad,Unknown*%
%ADD16C,4.500000*%
%TA.AperFunction,Profile*%
%ADD17C,0.203200*%
%TD.AperFunction*%
D10*
X-5504000Y+4296000D02*
X-5850000Y+3950000D01*
X-5850000Y+3550000D01*
X-5504000Y+4550000D02*
X-5377035Y+4423035D01*
X-5377035Y+4239229D01*
X-5650000Y+3966264D01*
X-5650000Y+3550000D01*
X-5250000Y+4296000D02*
X-5250000Y+4100000D01*
X-5450000Y+3900000D01*
X-5450000Y+3550000D01*
X-5250000Y+4550000D02*
X-5250000Y+4475617D01*
X-5122947Y+4348564D01*
X-5122947Y+4027053D01*
X-5250000Y+3900000D01*
X-5250000Y+3550000D01*
X-4996000Y+4296000D02*
X-4996000Y+3854000D01*
X-5050000Y+3800000D01*
X-5050000Y+3550000D01*
X-4996000Y+4550000D02*
X-4996000Y+4490846D01*
X-4868953Y+4363799D01*
X-4868953Y+3759038D01*
X-4851368Y+3741453D01*
X-4851368Y+3551368D01*
X-4850000Y+3550000D01*
X-4742000Y+4296000D02*
X-4742000Y+3852281D01*
X-4646679Y+3756960D01*
X-4646679Y+3553321D01*
X-4650000Y+3550000D01*
X-4742000Y+4550000D02*
X-4450000Y+4258000D01*
X-4450000Y+3550000D01*
X-5504000Y+4296000D02*
X-5504000Y+4378577D01*
X-5533664Y+4408241D01*
X-5592589Y+4408241D01*
X-5651515Y+4467167D01*
X-5651515Y+4662552D01*
X-5654616Y+4665653D01*
X-5583285Y+4736984D01*
X-5583285Y+4740085D01*
X-4966118Y+4740085D01*
X-4888584Y+4662551D01*
X-4868908Y+4642875D01*
X-4868908Y+4497422D01*
X-4742000Y+4370514D01*
X-4742000Y+4296000D01*
X-3254000Y+4296000D02*
X-3600000Y+3950000D01*
X-3600000Y+3550000D01*
X-3254000Y+4550000D02*
X-3126997Y+4422997D01*
X-3126997Y+4188173D01*
X-3397784Y+3917386D01*
X-3400000Y+3915170D01*
X-3400000Y+3550000D01*
X-3000000Y+4296000D02*
X-3000000Y+4105445D01*
X-3202041Y+3903404D01*
X-3200000Y+3901363D01*
X-3200000Y+3550000D01*
X-3000000Y+4550000D02*
X-2872922Y+4422922D01*
X-2872922Y+4035043D01*
X-3004460Y+3903505D01*
X-3004460Y+3554460D01*
X-3000000Y+3550000D01*
X-2746000Y+4296000D02*
X-2746000Y+3872964D01*
X-2798859Y+3820105D01*
X-2798859Y+3551141D01*
X-2800000Y+3550000D01*
X-2492000Y+4296000D02*
X-2492000Y+3886256D01*
X-2400899Y+3795155D01*
X-2400899Y+3550899D01*
X-2400000Y+3550000D01*
X-2492000Y+4550000D02*
X-2200000Y+4258000D01*
X-2200000Y+3550000D01*
X-2746000Y+4550000D02*
X-2746000Y+4496000D01*
X-2619042Y+4369042D01*
X-2619042Y+3761909D01*
X-2600186Y+3743053D01*
X-2600186Y+3550186D01*
X-2600000Y+3550000D01*
X-3254000Y+4296000D02*
X-3254000Y+4370402D01*
X-3318096Y+4434498D01*
X-3371592Y+4434498D01*
X-3423333Y+4486239D01*
X-3423333Y+4585015D01*
X-3423333Y+4636756D01*
X-3329259Y+4730830D01*
X-2747212Y+4730830D01*
X-2619000Y+4602618D01*
X-2619000Y+4497414D01*
X-2492000Y+4370414D01*
X-2492000Y+4296000D01*
X-1004000Y+4296000D02*
X-1350000Y+3950000D01*
X-1350000Y+3550000D01*
X-1004000Y+4550000D02*
X-877013Y+4423013D01*
X-877013Y+4222270D01*
X-1149627Y+3949656D01*
X-1149627Y+3550373D01*
X-1150000Y+3550000D01*
X-750000Y+4296000D02*
X-750000Y+4100000D01*
X-950000Y+3900000D01*
X-950000Y+3550000D01*
X-750000Y+4550000D02*
X-623057Y+4423057D01*
X-623057Y+4026943D01*
X-750000Y+3900000D01*
X-750000Y+3550000D01*
X-496000Y+4296000D02*
X-496000Y+3921247D01*
X-552258Y+3864989D01*
X-552258Y+3552258D01*
X-550000Y+3550000D01*
X-496000Y+4550000D02*
X-496000Y+4475591D01*
X-369032Y+4348623D01*
X-369032Y+3819032D01*
X-350000Y+3800000D01*
X-350000Y+3550000D01*
X-242000Y+4296000D02*
X-242000Y+3892000D01*
X-150000Y+3800000D01*
X-150000Y+3550000D01*
X+1246000Y+4296000D02*
X+913909Y+3963909D01*
X+913909Y+3958390D01*
X+913909Y+3563909D01*
X+900000Y+3550000D01*
X+1500000Y+4296000D02*
X+1500000Y+4100000D01*
X+1300000Y+3900000D01*
X+1300000Y+3550000D01*
X+1500000Y+4550000D02*
X+1627079Y+4422921D01*
X+1627079Y+3995202D01*
X+1507548Y+3875671D01*
X+1507548Y+3557548D01*
X+1500000Y+3550000D01*
X+1754000Y+4296000D02*
X+1754000Y+3908024D01*
X+1700000Y+3854024D01*
X+1700000Y+3550000D01*
X+1754000Y+4550000D02*
X+1754000Y+4475551D01*
X+1880958Y+4348593D01*
X+1880958Y+3760153D01*
X+1906551Y+3734560D01*
X+1906551Y+3556551D01*
X+1900000Y+3550000D01*
X+2008000Y+4296000D02*
X+2100000Y+4204000D01*
X+2100000Y+3550000D01*
X+1246000Y+4550000D02*
X+1372997Y+4423003D01*
X+1372997Y+4237441D01*
X+1100000Y+3964444D01*
X+1100000Y+3550000D01*
X+2008000Y+4550000D02*
X+2300000Y+4258000D01*
X+2300000Y+3550000D01*
X+3496000Y+4296000D02*
X+3150000Y+3950000D01*
X+3150000Y+3550000D01*
X+3496000Y+4550000D02*
X+3622972Y+4423028D01*
X+3622972Y+4215144D01*
X+3353243Y+3945415D01*
X+3353243Y+3553243D01*
X+3350000Y+3550000D01*
X+3750000Y+4550000D02*
X+3876907Y+4423093D01*
X+3876907Y+4026907D01*
X+3750000Y+3900000D01*
X+3750000Y+3550000D01*
X+4004000Y+4296000D02*
X+4004000Y+3954000D01*
X+3950000Y+3900000D01*
X+3950000Y+3550000D01*
X+4004000Y+4550000D02*
X+4004000Y+4475598D01*
X+4131031Y+4348567D01*
X+4131031Y+3868318D01*
X+4151251Y+3848098D01*
X+4151251Y+3551251D01*
X+4150000Y+3550000D01*
X+4258000Y+4296000D02*
X+4350000Y+4204000D01*
X+4350000Y+3550000D01*
X+4258000Y+4550000D02*
X+4550000Y+4258000D01*
X+4550000Y+3550000D01*
X+3496000Y+4296000D02*
X+3496000Y+4383369D01*
X+3502464Y+4389833D01*
X+3466780Y+4425517D01*
X+3401902Y+4425517D01*
X+3353243Y+4474176D01*
X+3353243Y+4642860D01*
X+3410383Y+4700000D01*
X+4050000Y+4700000D01*
X+4131018Y+4618982D01*
X+4131018Y+4497407D01*
X+4258000Y+4370425D01*
X+4258000Y+4296000D01*
X+3750000Y+4296000D02*
X+3750000Y+4150000D01*
X+3550000Y+3950000D01*
X+3550000Y+3550000D01*
X-1750000Y+2100000D02*
X-1750000Y+1200000D01*
X+0Y+2100000D02*
X+0Y+1200000D01*
X+1000000Y+2100000D02*
X+1000000Y+1200000D01*
X-1004000Y+4296000D02*
X-1004000Y+4396000D01*
X-1000000Y+4400000D01*
X-1075432Y+4400000D01*
X-1143556Y+4468124D01*
X-1174914Y+4499482D01*
X-1174914Y+4650000D01*
X-1162371Y+4662543D01*
X-1080840Y+4744074D01*
X-478766Y+4744074D01*
X-368951Y+4634259D01*
X-368951Y+4497387D01*
X-242000Y+4370436D01*
X-242000Y+4296000D01*
X-5050000Y+3550000D02*
X-3600000Y+2100000D01*
X-1750000Y+2100000D01*
X-4450000Y+3550000D02*
X-4450000Y+3433457D01*
X-4116543Y+3100000D01*
X-2100000Y+3100000D01*
X-750000Y+1750000D01*
X-750000Y+1200000D01*
X-2200000Y+3550000D02*
X-2200000Y+3400000D01*
X-250000Y+1450000D01*
X-250000Y+1200000D01*
X-2600000Y+3550000D02*
X-2300000Y+3250000D01*
X-1250000Y+3100000D02*
X-1250000Y+2586341D01*
X-526481Y+1862822D01*
X-327642Y+1862822D01*
X-263501Y+1926963D01*
X-263501Y+2036499D01*
X-200000Y+2100000D01*
X+0Y+2100000D01*
X+997791Y+2227000D02*
X+1000000Y+2100000D01*
X+997791Y+2227000D02*
X+997791Y+2102209D01*
X+1000000Y+2100000D01*
X+8030Y+2108030D02*
X+0Y+2100000D01*
X+1490000Y+1790000D02*
X+1490000Y+1200000D01*
X+1500000Y+1200000D01*
X+3750000Y+2100000D02*
X+1000000Y+2100000D01*
X-2192020Y+2934696D02*
X-1743030Y+2415152D01*
X-1743030Y+2106970D01*
X-1750000Y+2100000D01*
X-550000Y+3550000D02*
X-550000Y+2800000D01*
X-750000Y+3550000D02*
X-750000Y+2950000D01*
X+999857Y+2950000D02*
X+997791Y+2227000D01*
X+8030Y+2227000D02*
X+8030Y+2108030D01*
X+1900000Y+2600000D02*
X+1900000Y+2610000D01*
X+1900000Y+2620000D01*
X+1900000Y+2600000D01*
X+1900000Y+2610000D02*
X+1910000Y+2600000D01*
X+4150000Y+2600000D01*
X+1246000Y+4296000D02*
X+1246000Y+4312391D01*
X+1118416Y+4439975D01*
X+1118417Y+4607091D01*
X+1209333Y+4698007D01*
X+1794636Y+4698007D01*
X+1881043Y+4611600D01*
X+1881043Y+4497440D01*
X+2008000Y+4370483D01*
X+2008000Y+4296000D01*
X-2644455Y+2921954D02*
X-2644455Y+2397356D01*
X-2643841Y+2396742D01*
X-242000Y+4550000D02*
X+50000Y+4258000D01*
X+50000Y+3550000D01*
X+2300000Y+3550000D02*
X+2000000Y+3250000D01*
X+900001Y+3250000D01*
X+650000Y+2999999D01*
X+650000Y+1350000D01*
X+500000Y+1200000D01*
X+1500000Y+3550000D02*
X+1500000Y+3409716D01*
X+1456541Y+3366257D01*
X+851987Y+3366257D01*
X+500000Y+3014270D01*
X+500000Y+2104957D01*
X+50000Y+3550000D02*
X+412762Y+3187238D01*
X+412762Y+3045543D01*
X+412762Y+2346722D01*
X+345716Y+2279676D01*
X+345716Y+1645716D01*
X+250000Y+1550000D01*
X+250000Y+1200000D01*
X+8030Y+2227000D02*
X+0Y+2100000D01*
X-550000Y+2750000D02*
X-550000Y+2800000D01*
X-550000Y+2750000D02*
X-550000Y+2100000D01*
X+1700000Y+2750000D02*
X+1190000Y+2750000D01*
X-350000Y+2750000D02*
X-550000Y+2750000D01*
X+4550000Y+3550000D02*
X+4122682Y+3122682D01*
X+922682Y+3122682D01*
X+750000Y+2950000D01*
X+750000Y+1200000D01*
X+0Y+2108504D02*
X+0Y+2100000D01*
X+1900000Y+2600000D02*
X+1900000Y+2500000D01*
X+1310000Y+2500000D01*
X+250000Y+2500000D02*
X+0Y+2500000D01*
X+0Y+2108504D01*
X-350000Y+3550000D02*
X+0Y+3200000D01*
X+0Y+2500000D01*
X-5650000Y+3550000D02*
X-5650000Y+3250000D01*
X-3600000Y+1200000D01*
X-2000000Y+1200000D01*
X-2000000Y-1450000D02*
X-2250001Y-1450000D01*
X-5850000Y+2149999D01*
X-5850000Y+3550000D01*
D11*
X-1250000Y+3100000D03*
X-2300000Y+3250000D03*
X+3750000Y+2100000D03*
X-2192020Y+2934696D03*
X-750000Y+2950000D03*
X+999857Y+2950000D03*
X+4150000Y+2600000D03*
X-550000Y+2100000D03*
X-2644455Y+2921954D03*
X-2643841Y+2396742D03*
X+500000Y+2104957D03*
X+1700000Y+2750000D03*
X+1190000Y+2750000D03*
X-350000Y+2750000D03*
X+1900000Y+2600000D03*
X+1310000Y+2500000D03*
X+250000Y+2500000D03*
D12*
X-2000000Y-1450000D03*
X+2500000Y-1450000D03*
X+2500000Y+1200000D03*
X+2250000Y-1450000D03*
X-1750000Y-1450000D03*
X+1250000Y+1200000D03*
X+1500000Y+1200000D03*
X+1000000Y+1200000D03*
X+250000Y+1200000D03*
X+1000000Y-1450000D03*
X+1500000Y-1450000D03*
X+750000Y-1450000D03*
X+1750000Y+1200000D03*
X+750000Y+1200000D03*
X+500000Y+1200000D03*
X+0Y+1200000D03*
X-250000Y+1200000D03*
X-750000Y+1200000D03*
X-1500000Y+1200000D03*
X-1750000Y+1200000D03*
X+0Y-1450000D03*
X+250000Y-1450000D03*
X+500000Y-1450000D03*
X-500000Y-1450000D03*
X-250000Y-1450000D03*
X-1000000Y-1450000D03*
X-750000Y-1450000D03*
X+1250000Y-1450000D03*
X-500000Y+1200000D03*
X-2000000Y+1200000D03*
X-1000000Y+1200000D03*
X+2250000Y+1200000D03*
X+2000000Y+1200000D03*
X+1750000Y-1450000D03*
X+2000000Y-1450000D03*
X-1250000Y-1450000D03*
X-1500000Y-1450000D03*
X-1250000Y+1200000D03*
D13*
X-5504000Y+4296000D03*
X-5504000Y+4550000D03*
X-5250000Y+4296000D03*
X-5250000Y+4550000D03*
X-4996000Y+4296000D03*
X-4996000Y+4550000D03*
X-4742000Y+4296000D03*
X-4742000Y+4550000D03*
X-3254000Y+4296000D03*
X-3254000Y+4550000D03*
X-3000000Y+4296000D03*
X-3000000Y+4550000D03*
X-2746000Y+4296000D03*
X-2746000Y+4550000D03*
X-2492000Y+4296000D03*
X-2492000Y+4550000D03*
X+1246000Y+4296000D03*
X+1246000Y+4550000D03*
X+1500000Y+4296000D03*
X+1500000Y+4550000D03*
X+1754000Y+4296000D03*
X+1754000Y+4550000D03*
X+2008000Y+4296000D03*
X+2008000Y+4550000D03*
X+3496000Y+4296000D03*
X+3496000Y+4550000D03*
X+3750000Y+4296000D03*
X+3750000Y+4550000D03*
X+4004000Y+4296000D03*
X+4004000Y+4550000D03*
X+4258000Y+4296000D03*
X+4258000Y+4550000D03*
X-1004000Y+4296000D03*
X-1004000Y+4550000D03*
X-750000Y+4296000D03*
X-750000Y+4550000D03*
X-496000Y+4296000D03*
X-496000Y+4550000D03*
X-242000Y+4296000D03*
X-242000Y+4550000D03*
D14*
X-5850000Y+3550000D03*
X-5650000Y+3550000D03*
X-5450000Y+3550000D03*
X-5250000Y+3550000D03*
X-5050000Y+3550000D03*
X-4850000Y+3550000D03*
X-4650000Y+3550000D03*
X-4450000Y+3550000D03*
X-3600000Y+3550000D03*
X-3400000Y+3550000D03*
X-3200000Y+3550000D03*
X-3000000Y+3550000D03*
X-2800000Y+3550000D03*
X-2600000Y+3550000D03*
X-2400000Y+3550000D03*
X-2200000Y+3550000D03*
X-1350000Y+3550000D03*
X-1150000Y+3550000D03*
X-950000Y+3550000D03*
X-750000Y+3550000D03*
X-550000Y+3550000D03*
X-350000Y+3550000D03*
X-150000Y+3550000D03*
X+50000Y+3550000D03*
X+900000Y+3550000D03*
X+1100000Y+3550000D03*
X+1300000Y+3550000D03*
X+1500000Y+3550000D03*
X+1700000Y+3550000D03*
X+1900000Y+3550000D03*
X+2100000Y+3550000D03*
X+2300000Y+3550000D03*
X+3150000Y+3550000D03*
X+3350000Y+3550000D03*
X+3550000Y+3550000D03*
X+3750000Y+3550000D03*
X+3950000Y+3550000D03*
X+4150000Y+3550000D03*
X+4350000Y+3550000D03*
X+4550000Y+3550000D03*
D15*
X+0Y+2100000D03*
X-1750000Y+2100000D03*
X+1000000Y+2100000D03*
X+1490000Y+1790000D03*
D16*
X-5890000Y-1670000D03*
X+4710000Y-1660000D03*
X-5850000Y+6300000D03*
X+4800000Y+6300000D03*
D17*
X-6250000Y-2000000D02*
X-6250000Y+6650000D01*
X+5150000Y+6650000D01*
X+5150000Y-2000000D01*
X-6250000Y-2000000D01*
M02*
